<svg width="96" height="96" viewBox="0 0 96 96" fill="none" xmlns="http://www.w3.org/2000/svg">
<path d="M78.4 84L53.2 58.8C51.2 60.4 48.9 61.6667 46.3 62.6C43.7 63.5333 40.9333 64 38 64C30.7333 64 24.5833 61.4833 19.55 56.45C14.5167 51.4167 12 45.2667 12 38C12 30.7333 14.5167 24.5833 19.55 19.55C24.5833 14.5167 30.7333 12 38 12C45.2667 12 51.4167 14.5167 56.45 19.55C61.4833 24.5833 64 30.7333 64 38C64 40.9333 63.5333 43.7 62.6 46.3C61.6667 48.9 60.4 51.2 58.8 53.2L84 78.4L78.4 84ZM38 56C43 56 47.25 54.25 50.75 50.75C54.25 47.25 56 43 56 38C56 33 54.25 28.75 50.75 25.25C47.25 21.75 43 20 38 20C33 20 28.75 21.75 25.25 25.25C21.75 28.75 20 33 20 38C20 43 21.75 47.25 25.25 50.75C28.75 54.25 33 56 38 56Z" fill="black"/>
</svg>
